<svg width="160" height="87" viewBox="0 0 160 87" fill="none" xmlns="http://www.w3.org/2000/svg">
<path opacity="0.99" d="M103.455 50.6335C103.455 46.6834 103.424 42.7334 103.467 38.7846C103.493 36.435 104.217 34.2785 105.499 32.293C106.489 30.7619 107.707 29.463 109.174 28.4017C110.824 27.2073 112.638 26.351 114.617 25.8406C115.172 25.697 115.758 25.6631 116.278 25.3785C116.386 25.3185 116.537 25.3289 116.67 25.3263C117.176 25.3172 117.681 25.3263 118.186 25.3119C121.957 25.2023 125.303 26.4306 128.253 28.6915C130.498 30.4133 132.138 32.6259 132.995 35.3698C133.422 36.7352 133.788 38.1163 133.745 39.5496C133.677 41.804 133.091 43.9422 132.001 45.9211C130.351 48.9182 127.905 51.0434 124.761 52.3631C122.35 53.3761 119.837 53.7207 117.227 53.5236C115.671 53.4061 114.177 53.0902 112.732 52.5171C112.495 52.4231 112.395 52.525 112.381 52.7521C112.372 52.8996 112.373 53.0484 112.373 53.1972C112.373 56.3158 112.378 59.433 112.369 62.5515C112.364 64.2785 111.509 65.4912 110.107 66.4441C109.084 67.1399 107.956 67.2273 106.882 66.9845C105.957 66.7757 105.104 66.187 104.473 65.3972C103.783 64.533 103.441 63.5592 103.446 62.4366C103.464 58.5022 103.452 54.5666 103.452 50.6322H103.454L103.455 50.6335ZM111.821 39.5287C111.751 40.4568 111.961 41.3171 112.376 42.1225C113.645 44.5792 115.69 45.8728 118.434 45.9877C120.131 46.0582 121.645 45.4459 122.936 44.3573C125.171 42.4723 125.792 39.9921 124.923 37.5015C123.607 33.7342 119.491 31.8597 115.741 33.5854C113.243 34.7354 111.873 36.7287 111.822 39.5287H111.821Z" fill="#1680E4"/>
<path opacity="0.99" d="M78.9404 58.0258C78.9404 59.54 78.9495 61.0555 78.9378 62.5698C78.9234 64.2942 78.0749 65.5095 76.6638 66.4519C75.6522 67.1268 74.5374 67.2339 73.4748 66.9884C72.5519 66.7744 71.6891 66.2026 71.0586 65.4142C70.4176 64.6127 70.09 63.7224 70.0926 62.6664C70.1135 54.6318 70.0991 46.5973 70.1096 38.5628C70.1122 36.2405 70.8693 34.1545 72.1303 32.2161C73.3351 30.3637 74.869 28.8613 76.7487 27.723C78.4352 26.7022 80.2706 26.056 82.1895 25.573C83.829 25.1605 85.4607 25.3485 87.0924 25.3564C87.7621 25.359 88.4305 25.6788 89.0988 25.8602C91.8336 26.5991 94.2628 27.8914 96.2392 29.9382C97.7599 31.5125 98.9269 33.31 99.5862 35.4338C100.375 37.974 100.461 40.5208 99.7389 43.0624C98.7194 46.6456 96.5551 49.3895 93.3765 51.3279C91.5686 52.431 89.6053 53.1489 87.5089 53.4283C85.68 53.6711 83.8408 53.6685 82.0159 53.3017C81.0982 53.1176 80.1897 52.9127 79.3294 52.5302C78.9861 52.3775 78.9482 52.6111 78.9469 52.8578C78.943 53.7037 78.9443 54.5509 78.9443 55.3968C78.9443 56.2727 78.9443 57.1486 78.9443 58.0258H78.9404ZM78.4052 39.5705C78.3191 40.4151 78.5227 41.2897 78.9391 42.1134C80.1936 44.5936 82.2691 45.8284 84.996 45.9903C86.3745 46.0725 87.629 45.5961 88.7829 44.8755C91.8088 42.984 92.9183 39.0379 90.6757 35.892C88.8547 33.3374 85.9294 32.3479 82.8422 33.3374C80.4847 34.0932 78.2107 36.7522 78.4039 39.5705H78.4052Z" fill="#1680E4"/>
<path opacity="0.99" d="M159.981 42.9993C159.981 47.3802 159.952 51.761 159.999 56.1405C160.012 57.3427 159.772 58.4536 159.384 59.5671C158.72 61.4729 157.552 63.0276 156.031 64.3082C154.931 65.235 153.619 65.8446 152.247 66.2467C150.558 66.7414 148.85 67.1722 147.046 67.0495C144.187 66.8563 141.501 66.1723 139.253 64.3121C137.702 63.0289 136.463 61.4729 135.786 59.5436C135.03 57.3923 136.466 55.2254 138.753 55.0061C140.115 54.8756 141.349 55.1589 142.404 56.0661C142.869 56.4655 143.278 56.9211 143.549 57.4707C144.321 59.028 145.571 59.9169 147.286 60.0501C149.515 60.2237 151.756 58.6559 152.054 56.1392C152.166 55.1902 152.111 54.2412 152.124 53.2922C152.131 52.7922 152.039 52.7413 151.573 52.9097C149.23 53.7582 146.831 54.018 144.349 53.7047C142.486 53.4697 140.852 52.7818 139.504 51.4882C138.538 50.56 137.863 49.4205 137.449 48.1438C136.91 46.4795 136.691 44.7681 136.7 43.0163C136.719 39.5114 136.705 36.0078 136.704 32.5029C136.704 31.3463 136.691 30.1898 136.632 29.0332C136.564 27.6834 137.321 26.801 138.425 26.1353C139.483 25.4983 140.659 25.5322 141.759 25.7293C143.245 25.9956 144.68 27.3245 144.659 29.1259C144.609 33.5211 144.643 37.9162 144.636 42.3114C144.636 42.7892 144.678 43.2617 144.77 43.7277C145.106 45.4352 146.186 46.3972 147.927 46.5264C148.913 46.5995 149.85 46.4364 150.667 45.8202C151.704 45.0383 152.021 43.9118 152.029 42.7148C152.06 38.2152 152.052 33.7156 152.027 29.2173C152.022 28.4001 152.222 27.6834 152.73 27.0712C153.418 26.2397 154.296 25.7241 155.402 25.6719C155.728 25.6562 156.056 25.6666 156.382 25.6693C157.996 25.6836 159.13 26.4446 159.845 27.8753C159.98 28.1429 159.982 28.4171 159.982 28.699C159.982 33.4662 159.982 38.2321 159.982 42.9993H159.981Z" fill="#1680E4"/>
<path opacity="0.99" d="M66.6486 39.9888C66.6486 43.9689 66.6486 47.9489 66.6486 51.929C66.6486 53.2279 66.0129 53.8597 64.7062 53.861C62.9674 53.861 61.23 53.8649 59.4912 53.861C58.3921 53.8583 57.7055 53.1796 57.7055 52.0883C57.7029 43.9937 57.7029 35.9004 57.7055 27.8058C57.7055 26.7132 58.3908 26.0318 59.4873 26.0292C61.2548 26.024 63.0236 26.0253 64.791 26.0292C65.9659 26.0305 66.6473 26.7054 66.6486 27.8724C66.6512 31.9125 66.6486 35.9513 66.6486 39.9914V39.9888Z" fill="#1680E4"/>
<path d="M62.2511 24.007C60.2787 24.0109 58.6157 22.8491 58.0504 21.1221C57.2568 18.6928 59.16 16.0142 61.7694 15.8693C63.422 15.778 64.7848 16.3366 65.7534 17.6838C67.2938 19.8272 66.2912 22.7995 63.7445 23.7316C63.2393 23.9169 62.7224 24.0422 62.2511 24.007Z" fill="#00A89C"/>
<path opacity="0.99" d="M105.144 74.6399C105.144 73.8567 105.144 73.0735 105.144 72.2916C105.144 71.5201 105.155 70.7486 105.14 69.9771C105.134 69.6312 105.272 69.5046 105.616 69.5124C107.091 69.5438 106.845 69.3205 106.852 70.7173C106.865 74.1308 106.854 77.5431 106.861 80.9566C106.861 81.4448 106.904 81.9343 106.933 82.4225C106.95 82.7032 106.832 82.8128 106.546 82.8285C105.477 82.8872 105.48 82.8951 105.339 81.8429C105.325 81.7333 105.368 81.6028 105.237 81.4996C104.891 81.8586 104.587 82.2633 104.143 82.5165C102.527 83.4381 100.607 83.0909 99.3955 81.655C97.833 79.8014 98.0301 76.239 99.7884 74.5694C100.938 73.4781 102.677 73.1949 104.047 73.8737C104.437 74.0669 104.774 74.3266 105.144 74.6412V74.6399ZM105.139 78.261C105.139 78.261 105.137 78.261 105.135 78.261C105.135 77.8746 105.155 77.4882 105.131 77.1031C105.071 76.132 104.417 75.2809 103.534 74.9937C102.548 74.6739 101.506 74.9663 100.871 75.739C99.8772 76.9491 99.7989 79.3392 100.711 80.6068C101.339 81.4801 102.364 81.8194 103.436 81.5101C104.369 81.2412 105.101 80.2896 105.138 79.2831C105.15 78.9424 105.14 78.6004 105.14 78.2597L105.139 78.261Z" fill="#1680E4"/>
<path opacity="0.99" d="M56.5688 78.2243C56.5571 79.9618 56.0127 81.4525 54.445 82.3702C51.8264 83.904 47.9717 82.7252 47.7249 78.7399C47.6362 77.3119 47.9247 75.9843 48.9181 74.8943C50.1099 73.5863 52.0979 73.1556 53.8432 73.7978C55.4136 74.3761 56.4879 75.9099 56.5688 77.6891C56.5767 77.8666 56.5688 78.0455 56.5688 78.223V78.2243ZM49.4324 78.1865C49.448 79.1485 49.6373 79.9618 50.1516 80.6745C51.1241 82.0216 53.0117 82.083 54.0181 80.805C55.052 79.4918 55.1133 77.2361 54.1539 75.8629C53.2545 74.5771 51.4988 74.4218 50.4049 75.5431C49.6621 76.3041 49.4702 77.2675 49.4324 78.1878V78.1865Z" fill="#1680E4"/>
<path opacity="0.99" d="M83.7258 78.613C82.8342 78.613 81.9427 78.6235 81.0511 78.6078C80.6647 78.6013 80.5198 78.7109 80.5916 79.1299C80.8696 80.7564 81.8748 81.6297 83.5287 81.6558C84.3067 81.6676 85.0756 81.6284 85.8066 81.3334C86.0611 81.2303 86.1799 81.3008 86.2556 81.5658C86.5075 82.4456 86.4919 82.4978 85.6238 82.7354C84.5795 83.0212 83.513 83.1113 82.4465 82.9273C80.4154 82.5761 79.0761 81.0671 78.9325 79.0098C78.8489 77.818 79.0017 76.6693 79.5904 75.6041C80.649 73.6892 83.1162 72.932 85.0286 73.9476C85.753 74.3327 86.2439 74.9397 86.5532 75.689C86.8757 76.4683 87.001 77.2828 86.9683 78.1287C86.954 78.4955 86.7947 78.6208 86.4449 78.6169C85.539 78.6052 84.6317 78.613 83.7258 78.6143V78.613ZM82.9465 77.3559C83.5848 77.3559 84.2244 77.339 84.8615 77.3625C85.2818 77.3781 85.398 77.215 85.2844 76.8299C85.2387 76.6745 85.2231 76.5088 85.18 76.3521C84.8954 75.3287 84.1931 74.8301 83.1332 74.7739C81.6816 74.6982 80.8383 75.9266 80.6216 77.0779C80.5668 77.3677 80.7587 77.3546 80.9414 77.3559C81.6098 77.3572 82.2781 77.3559 82.9465 77.3559Z" fill="#1680E4"/>
<path opacity="0.99" d="M113.738 78.6129C112.846 78.6129 111.954 78.622 111.063 78.609C110.682 78.6025 110.573 78.7395 110.636 79.1194C110.906 80.7485 111.915 81.6283 113.564 81.6557C114.342 81.6688 115.111 81.6335 115.842 81.3359C116.128 81.2197 116.236 81.3215 116.308 81.5983C116.538 82.4755 116.54 82.4898 115.68 82.7339C114.696 83.0133 113.684 83.0968 112.678 82.9624C110.577 82.6817 109.204 81.238 108.99 79.1102C108.866 77.8754 109.032 76.6796 109.653 75.5753C110.714 73.6864 113.17 72.9411 115.065 73.9423C115.805 74.3339 116.301 74.9539 116.612 75.7202C116.923 76.4878 117.047 77.2879 117.014 78.1182C117.001 78.4758 116.86 78.622 116.501 78.6168C115.579 78.6051 114.659 78.6129 113.738 78.6129ZM112.966 77.3558C113.546 77.3558 114.124 77.3558 114.704 77.3558C115.191 77.3558 115.388 77.1161 115.295 76.6366C115.266 76.4917 115.232 76.3455 115.185 76.2058C114.885 75.3038 114.2 74.8404 113.249 74.7764C111.735 74.6733 110.906 75.8964 110.671 77.053C110.618 77.318 110.75 77.3584 110.961 77.3584C111.629 77.3545 112.298 77.3584 112.966 77.3584V77.3558Z" fill="#1680E4"/>
<path opacity="0.99" d="M140.692 78.6132C139.786 78.6132 138.879 78.6211 137.973 78.6093C137.621 78.6054 137.499 78.7242 137.555 79.0897C137.807 80.7305 138.834 81.6286 140.504 81.6547C141.282 81.6665 142.051 81.626 142.782 81.331C143.041 81.2266 143.152 81.3088 143.227 81.5686C143.476 82.4497 143.464 82.4967 142.59 82.7356C141.545 83.0202 140.479 83.1102 139.412 82.9262C137.384 82.575 136.043 81.0608 135.902 79.0048C135.82 77.813 135.974 76.6643 136.563 75.5991C137.623 73.6855 140.091 72.9297 142.002 73.9478C142.727 74.3342 143.216 74.9412 143.526 75.6905C143.848 76.4711 143.972 77.2857 143.94 78.1302C143.925 78.501 143.758 78.6184 143.411 78.6145C142.505 78.6028 141.598 78.6106 140.692 78.6106V78.6132ZM139.886 77.3562C140.51 77.3562 141.133 77.3575 141.757 77.3562C142.329 77.3548 142.346 77.3366 142.241 76.774C142.203 76.5703 142.164 76.3641 142.096 76.1696C141.796 75.3028 141.124 74.8472 140.224 74.7781C138.645 74.6553 137.836 75.9033 137.597 77.0468C137.543 77.3052 137.663 77.3588 137.881 77.3575C138.55 77.3535 139.218 77.3562 139.886 77.3575V77.3562Z" fill="#1680E4"/>
<path opacity="0.99" d="M155.779 80.6953C155.972 80.4408 155.983 80.1954 156.057 79.9734C156.71 78.0311 157.363 76.0887 158.001 74.1424C158.104 73.8278 158.258 73.6633 158.604 73.6985C158.81 73.7194 159.019 73.7025 159.228 73.7025C159.968 73.7025 159.976 73.7064 159.716 74.376C158.671 77.0599 157.714 79.7776 156.582 82.4275C156.051 83.6716 155.458 84.8908 154.428 85.8254C153.937 86.2705 153.38 86.5995 152.763 86.8345C152.465 86.948 152.272 86.8893 152.203 86.559C152.2 86.5447 152.195 86.5303 152.189 86.5159C151.981 85.9129 152.152 85.4551 152.701 85.1427C153.608 84.6232 154.253 83.8687 154.696 82.9288C154.862 82.5763 154.808 82.2435 154.67 81.8976C153.648 79.3638 152.631 76.8288 151.613 74.2938C151.381 73.7194 151.392 73.6933 152.009 73.7051C153.484 73.7351 153.145 73.4388 153.668 74.8616C154.351 76.7139 155.097 78.5441 155.674 80.4342C155.694 80.5034 155.728 80.5687 155.782 80.6953H155.779Z" fill="#1680E4"/>
<path opacity="0.99" d="M64.7525 81.5044C64.6062 81.6611 64.4653 81.8269 64.3099 81.9783C63.2461 83.0161 61.9812 83.2628 60.6079 82.7955C59.3613 82.3712 58.8535 81.3178 58.7099 80.109C58.4736 78.0987 58.6485 76.0754 58.6094 74.0586C58.6055 73.825 58.7164 73.7231 58.9579 73.6997C60.3168 73.5717 60.3011 73.5678 60.3194 74.9202C60.3416 76.4918 60.228 78.0674 60.3964 79.6365C60.4382 80.0268 60.5492 80.3949 60.7437 80.7317C61.1797 81.4849 62.143 81.7864 63.0555 81.4653C64.0371 81.1207 64.6428 80.2683 64.6493 79.1731C64.6598 77.54 64.6663 75.907 64.6441 74.274C64.6376 73.821 64.7838 73.6788 65.2315 73.6931C66.5278 73.7349 66.3568 73.5221 66.3633 74.8366C66.3763 77.3756 66.375 79.9145 66.3933 82.4535C66.3959 82.7276 66.3176 82.8281 66.0461 82.8229C64.8164 82.8007 64.8595 82.9952 64.8334 81.7616C64.8321 81.6794 64.8634 81.5815 64.7498 81.5018L64.7525 81.5044Z" fill="#1680E4"/>
<path opacity="0.99" d="M131.006 80.9995C131.314 80.1145 131.599 79.3104 131.875 78.505C132.373 77.0599 132.875 75.6162 133.356 74.1646C133.465 73.8317 133.626 73.6633 133.99 73.6973C134.241 73.7208 134.494 73.6999 134.747 73.7025C135.284 73.7064 135.307 73.7378 135.118 74.222C134.468 75.8799 133.817 77.5377 133.166 79.1955C132.755 80.245 132.338 81.2932 131.943 82.3493C131.818 82.6847 131.648 82.8453 131.263 82.8297C129.916 82.7787 130.211 83.0516 129.712 81.7462C128.757 79.2516 127.818 76.7505 126.875 74.2521C126.676 73.726 126.693 73.6947 127.249 73.7038C128.78 73.7299 128.391 73.4506 128.891 74.8682C129.578 76.8132 130.303 78.7452 130.89 80.7241C130.91 80.7894 130.942 80.8507 131.005 80.9982L131.006 80.9995Z" fill="#1680E4"/>
<path opacity="0.99" d="M44.0952 83.0017C41.2234 83.007 39.4363 81.216 39.4272 78.4251C39.4194 75.7987 40.8801 74.0012 43.406 73.5822C44.338 73.4282 45.27 73.5078 46.1772 73.8028C46.5062 73.9098 46.6211 74.073 46.5127 74.4307C46.2699 75.24 46.2895 75.2309 45.5076 75.0416C44.2127 74.7296 42.9908 74.8001 42.0053 75.8392C40.7273 77.1863 40.8748 79.8153 42.3107 80.981C43.3524 81.8269 44.5364 81.7603 45.7386 81.3987C46.3104 81.2264 46.3065 81.216 46.4422 81.8099C46.608 82.5409 46.6093 82.5436 45.8862 82.7537C45.2687 82.9339 44.6395 83.0278 44.0952 83.0017Z" fill="#1680E4"/>
<path opacity="0.99" d="M120.674 76.1932C120.674 78.2126 120.662 80.2307 120.683 82.2501C120.688 82.7018 120.545 82.8453 120.097 82.831C118.801 82.7892 118.968 83.002 118.965 81.6888C118.959 77.8445 118.963 73.9989 118.964 70.1546C118.964 69.5162 118.966 69.5097 119.613 69.5162C120.833 69.5267 120.667 69.3648 120.673 70.5827C120.68 72.4533 120.675 74.3239 120.675 76.1932H120.674Z" fill="#1680E4"/>
<path opacity="0.99" d="M70.3863 75.3158C70.6631 74.9033 70.9098 74.5195 71.2557 74.2036C71.5115 73.9699 71.7935 73.7807 72.1172 73.6619C72.5141 73.5157 73.0284 73.3447 73.3038 73.624C73.6184 73.9425 73.4213 74.4973 73.4043 74.949C73.3965 75.1448 73.2059 75.163 73.061 75.1422C71.723 74.9503 70.6696 76.2269 70.6513 77.6537C70.6304 79.1823 70.6291 80.7122 70.6461 82.2408C70.6513 82.678 70.5247 82.8464 70.0639 82.8321C68.7494 82.7877 68.9465 82.9979 68.9387 81.6873C68.9269 79.7566 68.94 77.8273 68.9308 75.8967C68.9282 75.3184 68.893 74.7401 68.8551 74.1631C68.8316 73.8107 68.9804 73.6919 69.3224 73.6984C70.5064 73.7206 70.3615 73.5666 70.385 74.7401C70.3889 74.932 70.385 75.1239 70.385 75.3158H70.3863Z" fill="#1680E4"/>
<path opacity="0.99" d="M90.3569 75.317C90.7368 74.6657 91.1702 74.1344 91.8098 73.7885C91.9012 73.7389 91.9952 73.6932 92.0931 73.6592C92.4912 73.5209 93.0055 73.3433 93.2783 73.6279C93.5864 73.949 93.3958 74.5025 93.3736 74.9555C93.3645 75.1513 93.17 75.163 93.0251 75.1421C91.7171 74.9529 90.6519 76.1916 90.6245 77.6145C90.5945 79.1431 90.6128 80.673 90.6088 82.2016C90.6075 82.8138 90.5997 82.8268 89.9849 82.8216C88.7513 82.8099 88.9145 82.9769 88.9093 81.7695C88.9001 79.8101 88.9119 77.8495 88.9014 75.8901C88.8988 75.3118 88.861 74.7336 88.827 74.1566C88.8087 73.842 88.9171 73.6932 89.2552 73.6984C90.4966 73.718 90.3308 73.5652 90.3569 74.7453C90.3608 74.9346 90.3569 75.1252 90.3569 75.3157V75.317Z" fill="#1680E4"/>
<path opacity="0.99" d="M147.414 75.3158C147.69 74.9033 147.937 74.5196 148.283 74.2037C148.539 73.97 148.821 73.7807 149.145 73.6619C149.541 73.5157 150.056 73.3447 150.331 73.6228C150.647 73.9413 150.449 74.4961 150.432 74.9477C150.424 75.1435 150.235 75.1631 150.088 75.1409C148.75 74.9477 147.697 76.2257 147.677 77.6511C147.656 79.1797 147.655 80.7096 147.672 82.2382C147.677 82.6742 147.552 82.8452 147.091 82.8295C145.775 82.7851 145.974 82.9953 145.966 81.686C145.954 79.7554 145.967 77.826 145.958 75.8954C145.956 75.3171 145.92 74.7389 145.882 74.1619C145.859 73.8094 146.005 73.6906 146.349 73.6972C147.534 73.7194 147.389 73.5653 147.412 74.7375C147.416 74.9294 147.412 75.1213 147.412 75.3132L147.414 75.3158Z" fill="#1680E4"/>
<path opacity="0.99" d="M76.9008 78.2947C76.9008 79.6158 76.8878 80.9368 76.9087 82.2565C76.9152 82.669 76.8042 82.8426 76.3604 82.8296C75.0159 82.7891 75.1973 83.0058 75.1921 81.6809C75.183 79.232 75.1895 76.7831 75.1895 74.3343C75.1895 73.7116 75.1986 73.6972 75.8017 73.7038C77.0692 73.7155 76.8891 73.5445 76.8982 74.7768C76.9074 75.949 76.9008 77.1212 76.8995 78.2934L76.9008 78.2947Z" fill="#1680E4"/>
<path opacity="0.99" d="M125.044 78.2869C125.044 79.6223 125.032 80.959 125.051 82.2944C125.058 82.7017 124.921 82.8413 124.514 82.8309C123.148 82.793 123.341 83.0149 123.336 81.6469C123.327 79.198 123.332 76.7492 123.334 74.3003C123.334 73.7181 123.349 73.6998 123.935 73.705C125.221 73.7181 125.031 73.538 125.041 74.8146C125.051 75.9725 125.044 77.1303 125.042 78.2869H125.044Z" fill="#1680E4"/>
<path opacity="0.99" d="M76.0428 72.2146C75.4371 72.2185 75.005 71.7956 75.0011 71.1925C74.9959 70.5855 75.4149 70.1521 76.0154 70.1404C76.6459 70.1286 77.0767 70.5516 77.0767 71.186C77.0767 71.7904 76.655 72.2107 76.0428 72.2146Z" fill="#1680E4"/>
<path opacity="0.99" d="M125.22 71.1832C125.22 71.7876 124.8 72.2092 124.188 72.2144C123.582 72.2196 123.15 71.7967 123.143 71.1949C123.137 70.571 123.574 70.135 124.201 70.1402C124.808 70.1454 125.219 70.567 125.22 71.1832Z" fill="#1680E4"/>
<path d="M23.7597 18.3808C23.5535 18.2647 23.3877 18.3064 23.2297 18.3064C21.7586 18.3025 20.2874 18.3064 18.8176 18.3025C17.8529 18.2999 17.3216 17.7777 17.3177 16.8235C17.3125 15.2793 17.3125 13.735 17.3177 12.1895C17.3203 11.2274 17.8464 10.6987 18.8058 10.6974C22.8473 10.6935 26.8887 10.6909 30.9301 10.7026C31.3165 10.7026 31.6011 10.5995 31.87 10.3176C32.5253 9.62963 33.2106 8.97042 33.8816 8.29554C33.9834 8.19372 34.1178 8.11279 34.1609 7.93004C33.9821 7.83474 33.7876 7.87913 33.6035 7.87913C26.4723 7.87652 19.3397 7.8739 12.2085 7.88174C11.6511 7.88174 11.1812 7.75251 10.8535 7.27474C10.6786 7.02019 10.6264 6.73432 10.6277 6.42886C10.6316 4.76582 10.6251 3.10147 10.6316 1.43843C10.6355 0.542947 11.1799 0.00382898 12.0858 0.00382898C23.3028 0.00121824 34.5212 0.00252361 45.7382 0.00252361C47.6715 0.340614 49.5356 0.852319 51.0367 2.21774C52.4935 3.54269 53.419 5.1744 53.7075 7.12854C54.15 10.1322 53.2454 12.7168 51.1151 14.8459C44.2762 21.6821 37.4178 28.4988 30.5633 35.3193C30.4302 35.4525 30.2539 35.5412 30.1338 35.6953C30.3832 35.861 30.5764 35.8258 30.7617 35.8258C37.9086 35.8271 45.0542 35.8271 52.2011 35.8271C53.4399 35.8271 53.9007 36.2827 53.9007 37.5097C53.9007 38.9652 53.9033 40.4207 53.9007 41.8762C53.8994 42.9257 53.3929 43.4335 52.3447 43.4335C42.5975 43.4335 32.8516 43.4374 23.1044 43.4257C22.6384 43.4257 22.2938 43.5405 21.9714 43.8878C21.3382 44.5705 20.6595 45.2114 19.9898 45.8798C20.1869 46.0455 20.371 45.9829 20.5394 45.9829C25.6656 45.9868 30.7904 45.9855 35.9166 45.9868C37.1189 45.9868 37.5862 46.4541 37.5862 47.6551C37.5862 49.1406 37.5901 50.6248 37.5849 52.1103C37.581 53.0658 37.0523 53.5919 36.0876 53.5919C26.4005 53.5932 16.7133 53.5919 7.02616 53.5958C6.62019 53.5958 6.26252 53.5018 5.96359 53.2225C5.82914 53.0971 5.66205 53.0371 5.49758 52.9666C0.122058 50.66 -1.14024 43.8734 2.57616 39.5944C4.27053 37.6442 6.1842 35.8963 8.0326 34.091C8.13834 33.9878 8.2493 33.8873 8.35373 33.7829C13.3794 28.7664 18.4051 23.7485 23.4308 18.732C23.5339 18.6288 23.6318 18.5192 23.761 18.3808H23.7597Z" fill="#00A89C"/>
<path d="M7.25631 18.2148C5.47448 18.2148 3.69265 18.2174 1.91082 18.2148C0.891329 18.2135 0.378319 17.7005 0.377014 16.6823C0.374403 15.1537 0.373098 13.6251 0.377014 12.0966C0.379625 11.1384 0.906994 10.6111 1.86775 10.6097C5.46143 10.6071 9.0538 10.6071 12.6475 10.6097C13.6069 10.6097 14.1343 11.1384 14.1369 12.0979C14.1408 13.6408 14.1408 15.1851 14.1369 16.728C14.1343 17.6861 13.6069 18.2122 12.6462 18.2148C10.85 18.2187 9.0525 18.2148 7.25631 18.2148Z" fill="#00A89C"/>
<path d="M46.9464 45.9866C48.7282 45.9866 50.5101 45.984 52.2919 45.9866C53.2853 45.9879 53.8087 46.5048 53.8114 47.4891C53.8153 49.032 53.8166 50.5763 53.8114 52.1192C53.8087 53.0526 53.2775 53.5891 52.3506 53.5904C48.7426 53.5943 45.1346 53.5943 41.5265 53.5904C40.5919 53.5904 40.0567 53.0591 40.0527 52.1323C40.0475 50.5737 40.0475 49.0151 40.0527 47.4578C40.0554 46.5244 40.5853 45.9892 41.5135 45.9866C43.3253 45.9814 45.1359 45.9853 46.9477 45.9853L46.9464 45.9866Z" fill="#00A89C"/>
<path opacity="0.99" d="M4.13929 7.78651C2.88483 7.72385 1.57554 7.03462 0.843231 5.52039C0.137026 4.05968 0.374604 2.65902 1.40193 1.40457C2.64725 -0.116189 5.15617 -0.45689 6.88056 0.652673C8.35171 1.59907 9.03703 3.3091 8.58015 4.8912C8.07628 6.63779 6.46806 7.79043 4.13929 7.78521V7.78651Z" fill="#1680E4"/>
<path opacity="0.99" fill-rule="evenodd" clip-rule="evenodd" d="M46.9646 0.0310888C50.2529 0.538877 52.5373 2.29721 53.8178 5.30739C54.87 8.50684 54.3556 11.4283 52.2749 14.0703C44.9191 21.3021 37.5803 28.5456 30.2611 35.8008C27.5447 38.2379 24.913 40.7716 22.3636 43.4019C21.5165 44.2661 20.6693 45.1302 19.8221 45.9957C17.8484 47.8063 15.9112 49.669 14.0119 51.5853C12.6164 52.6753 11.0422 53.3462 9.29167 53.5969H7.38583C6.78405 53.4781 6.17836 53.3293 5.57006 53.1491C2.46589 51.9821 0.635762 49.7774 0.0783688 46.5322C-0.242752 43.9215 0.422986 41.5966 2.07558 39.5576C9.31125 32.4447 16.5273 25.3213 23.7264 18.1848C23.793 18.1966 23.8544 18.1822 23.9079 18.1405C26.4703 15.6015 29.0419 13.0822 31.6239 10.5837C32.5625 9.62946 33.4998 8.67654 34.4383 7.72232C36.4434 5.88175 38.4092 3.98896 40.3386 2.04397C42.2705 0.520602 44.4805 -0.150357 46.9659 0.0323942L46.9646 0.0310888Z" fill="#1680E4"/>
</svg>
